<svg xmlns="http://www.w3.org/2000/svg" viewBox="0 0 512 512">
  <path class="icon-svg-spatula" fill="#currentcolor" d="M242.05 495.235v-23.217h-.002V205.453h-31.61c-5.337 0-9.705-4.368-9.705-9.706V51.853c0-28.47 23.295-51.766 51.766-51.766h10.18C260.46.03 258.233 0 256 0 114.615 0 0 114.615 0 256c0 137.68 108.694 249.96 244.95 255.748-1.64-1.34-2.9-8.242-2.9-16.513zm69.052-489.27c.018.198.06.39.06.592v189.19c0 5.338-4.368 9.706-9.706 9.706h-31.57v289.782c0 8.277-1.262 15.184-2.904 16.515C403.27 505.996 512 393.704 512 256c0-122.466-86-224.828-200.898-250.035z"/>
</svg>