<svg xmlns="http://www.w3.org/2000/svg" viewBox="0 0 512 512">
  <path class="icon-svg-pencil" fill="#currentcolor" d="M267.617.274c1.32.496 2.27 1.762 2.27 3.25V22.73H242.05V3.52c0-1.484.945-2.75 2.26-3.246C108.352 6.39 0 118.536 0 256c0 141.385 114.615 256 256 256s256-114.615 256-256C512 118.51 403.608 6.35 267.617.274zm-11.622 511.683l-4.933-36.522h9.852l-4.92 36.522zm5.384-39.982h-10.79l-8.003-59.243h26.766l-7.978 59.243zm8.503-62.702h-27.838V40.025h27.838v369.248zm0-372.707h-27.838v-3.46h27.838v3.46zm0-6.92h-27.838V26.19h27.838v3.46z"/>
</svg>