<svg xmlns="http://www.w3.org/2000/svg" viewBox="0 0 512 512">
  <path class="icon-svg-compass" d="M273.69 166.03c.38-.16.753-.336 1.128-.507.624-.285 1.242-.58 1.85-.894.368-.19.733-.39 1.095-.58.62-.34 1.23-.7 1.832-1.07.32-.2.64-.39.954-.59.69-.45 1.37-.93 2.04-1.41.19-.15.4-.28.59-.43.87-.656 1.716-1.337 2.536-2.05.127-.11.244-.23.37-.34.675-.6 1.334-1.217 1.972-1.856.25-.25.49-.513.73-.77 7.767-8.14 12.553-19.15 12.553-31.293 0-23.302-17.565-42.493-40.175-45.083v4.676c0 1.434-1.172 2.61-2.61 2.61h-5.216c-1.436 0-2.61-1.175-2.61-2.61v-4.67c-22.61 2.59-40.173 21.78-40.173 45.084 0 12.144 4.79 23.15 12.556 31.295.246.257.485.518.735.77.64.637 1.3 1.254 1.973 1.854.125.11.243.23.37.34.82.712 1.666 1.394 2.536 2.05.192.143.4.28.594.42.67.487 1.35.96 2.05 1.41.316.203.637.394.956.59.6.37 1.21.73 1.83 1.07.364.2.73.39 1.097.58.61.31 1.228.61 1.85.896.377.173.75.347 1.13.508.68.29 1.376.555 2.073.81.4.15.79.31 1.196.448l-20.264 150.03h29.5v-14.03c0-1.433 1.176-2.61 2.61-2.61h5.22c1.437 0 2.61 1.177 2.61 2.61v14.026h29.5L270.42 167.29c.405-.137.797-.3 1.197-.447.698-.257 1.39-.52 2.072-.81z"/>
  <path class="icon-svg-compass" d="M264.668.162c1.007.362 1.737 1.32 1.737 2.448v53.93c0 1.238-.877 2.28-2.04 2.54h4.688c2.574 0 4.68 2.107 4.68 4.68 0 2.575-2.106 4.68-4.68 4.68h-7.867v.26c28.374 2.633 50.59 26.497 50.59 55.56 0 17.287-7.866 32.73-20.208 42.967l21.093 150.086h34.78v-1.408c0-2.096 1.72-3.81 3.81-3.81h9.78c2.098 0 3.81 1.714 3.81 3.81v13.253c0 2.096-1.712 3.81-3.81 3.81h-9.772c-2.096 0-3.81-1.714-3.81-3.81v-1.408h-33.31l20.295 144.404-8.67 19.75h-11.49l-2.683-19.888c.633.08 1.275.137 1.93.137 8.34 0 15.1-6.76 15.1-15.1 0-8.338-6.76-15.098-15.1-15.098-2.07 0-4.04.418-5.835 1.17l-15.59-115.375h-30.91v12.07c0 1.436-1.173 2.61-2.61 2.61h-5.217c-1.435 0-2.61-1.174-2.61-2.61v-12.07h-30.91l-15.585 115.378c-1.795-.753-3.766-1.17-5.835-1.17-8.34 0-15.1 6.76-15.1 15.098 0 8.34 6.76 15.1 15.1 15.1.656 0 1.298-.057 1.932-.138l-2.686 19.888H186.18l-8.668-19.75 20.295-144.404h-32.37v1.408c0 2.096-1.715 3.81-3.81 3.81h-9.775c-2.096 0-3.81-1.714-3.81-3.81v-13.253c0-2.096 1.714-3.81 3.81-3.81h9.774c2.096 0 3.81 1.714 3.81 3.81v1.408h33.838l21.093-150.086c-12.342-10.24-20.21-25.68-20.21-42.97 0-29.06 22.217-52.93 50.592-55.56v-.26h-7.87c-2.58 0-4.68-2.11-4.68-4.68s2.1-4.68 4.68-4.68h4.69c-1.17-.27-2.04-1.31-2.04-2.55V2.6c0-1.12.72-2.08 1.72-2.44C109.92 4.777 0 117.547 0 256c0 119.064 81.285 219.136 191.386 247.768l-3.68-8.385h9.487l-1.284 9.506C215.18 509.52 235.3 512 256 512c20.675 0 40.772-2.468 60.027-7.095l-1.286-9.52h9.49l-3.69 8.404C430.68 475.18 512 375.09 512 256 512 117.518 402.038 4.735 264.668.162zm-66.25 469.07c-6.726 0-12.178-5.45-12.178-12.177 0-6.725 5.452-12.178 12.178-12.178s12.178 5.452 12.178 12.178c0 6.725-5.453 12.178-12.178 12.178zm102.92-12.177c0-6.725 5.453-12.178 12.18-12.178s12.177 5.452 12.177 12.178c0 6.725-5.452 12.178-12.178 12.178s-12.178-5.453-12.178-12.178z"/>
</svg>