<?xml version="1.0" encoding="utf-8"?>
<!-- Generator: Adobe Illustrator 19.1.0, SVG Export Plug-In . SVG Version: 6.00 Build 0)  -->
<svg version="1.1" id="Layer_1" xmlns="http://www.w3.org/2000/svg" xmlns:xlink="http://www.w3.org/1999/xlink" x="0px" y="0px"
	 viewBox="0 0 1024 1024" style="enable-background:new 0 0 1024 1024;" xml:space="preserve">
<path d="M628.5,620.9h-7c-14,0-23.7-5.9-23.7-14.6c0-5.4,3.8-9.2,9.7-9.2C617.7,597.2,624.8,605.8,628.5,620.9z M627.4,523.3
	c-14.6-5.9-29.7-9.2-43.1-9.2c-23.2,0-39.4,10.2-39.4,24.3c0,10.3,8.6,16.7,22.1,16.7c11.2,0,21.6-3,33.3-10.3
	c1.3-0.9,2.7-1.8,4-2.6C611.4,537.5,618.9,531.2,627.4,523.3z M683.5,473.1c15.1,0,21-9.7,21-35.1v-6.5V249.8
	c-28,12.9-39.4,29.1-39.4,55.6c0,10.8,3.2,23.2,9.2,35.1l9.2,17.8c6.5,13.5,11.3,34,11.3,51.2c0,23.2-5.9,39.9-22.1,62.6
	C678.2,472.6,680.3,473.1,683.5,473.1z M392.2,687.3h3.3c5.5,0.5,11.6,0.5,17.7,0.5c44.2,0,72.9-21.6,72.9-55.6
	c0-18.3-10.5-36.7-28.2-51.8c-16.6-14.6-38.1-21.6-67.4-21.6c-49.7,0-82.3,15.1-82.3,37.2c0,3.8,1.1,9.2,2.8,15.1l1.1,3.8
	c2.8,0,5.5,0,6.6,0c13.8,0,39.8,1.6,70.7,4.9l5.5,0.5l1.1-3.2c7.2-21,17.1-30.2,33.2-30.2c20.5,0,35.4,17.8,35.4,42.1
	c0,25.9-19.9,39.4-56.9,39.4c-3.9,0-6.6,0-12.2,0L392.2,687.3z M436.4,606.4c0-5.4-3.9-9.2-9.9-9.2c-10.5,0-17.7,8.6-21.6,23.7h7.2
	C426.5,620.9,436.4,615,436.4,606.4z M725.1,747.7c0-9.7-10.2-16.2-27.5-17.3c-2.7,11.9-5.4,17.8-10.3,28.6
	c5.4,2.7,8.6,3.2,14.6,3.2C715.4,762.2,725.1,756.3,725.1,747.7z M351.9,252l20.4,9.7c40.9,20,57.5,39.4,62.5,72.8
	c34.3,5.9,54.2,27.5,54.2,59.3c0,27.5-17.1,46.9-42,46.9c-7.2,0-13.3-1.1-23.8-5.4c2.8,0.5,5.5,0.5,6.6,0.5
	c17.1,0,30.4-11.3,30.4-26.4c0-18.9-16-32.4-39.2-32.4c13.8,8.6,21,18.9,21,30.2c0,7.6-2.8,12.4-11.6,20
	c-2.8-7.6-8.8-11.3-17.7-11.3c-7.7,0-16.6,3.2-26,10.2c-14.4,10.8-21,21.6-21,33.4c0,3.8,0.6,5.9,2.2,10.2l4.4-1.1l30.4-6.5
	c14.4-3.2,29.8-4.9,40.9-4.9c36,0,64.4,16.4,74.5,40.7c9.8-24.3,37.5-40.7,72.7-40.7c10.8,0,25.9,1.6,39.9,4.9l29.7,6.5l4.3,1.1
	c1.6-4.3,2.2-6.5,2.2-10.2c0-11.9-6.5-22.7-20.5-33.4c-9.2-7-17.8-10.2-25.4-10.2c-8.6,0-14.6,3.8-17.3,11.3
	c-8.6-7.6-11.3-12.4-11.3-20c0-11.3,7-21.6,20.5-30.2c-22.7,0-38.3,13.5-38.3,32.4c0,15.1,12.9,26.4,29.7,26.4c1.1,0,3.8,0,6.5-0.5
	c-10.2,4.3-16.2,5.4-23.2,5.4c-24.3,0-41-19.4-41-46.9c0-31.8,19.4-53.4,52.9-59.3c4.9-33.4,21-52.9,60.9-72.8l20-9.7
	c6.5-3.2,12.9-6.5,19.4-9.7l4.9-2.2v-12.9c-21.6,14-31.3,16.7-60.4,16.7c-5.9,0-15.1-0.5-25.3-1.1c-10.3-1.1-20.5-1.1-25.4-1.1
	c-31.3,0-52.9,16.2-52.9,39.4c0,16.2,11.9,28.6,28,28.6c7.6,0,13-2.2,20-8.1c2.7-2.2,4.3-2.7,5.4-2.7c2.1,0,4.3,1.6,4.3,3.8
	c0,1.6-1.6,4.3-4.9,6.5c-8.1,6.5-19.4,10.8-29.7,10.8c-19.5,0-36.5-12.3-45.7-30.7c-9.4,18.3-26.9,30.7-46.8,30.7
	c-10.5,0-22.1-4.3-30.4-10.8c-3.3-2.2-5-4.9-5-6.5c0-2.2,2.2-3.8,4.4-3.8c1.1,0,2.8,0.5,5.5,2.7c7.2,5.9,12.7,8.1,20.4,8.1
	c16.6,0,28.7-12.4,28.7-28.6c0-23.2-22.1-39.4-54.2-39.4c-5,0-15.5,0-26,1.1c-10.5,0.5-19.9,1.1-26,1.1c-29.8,0-39.8-2.7-61.9-16.7
	v12.9l5,2.2C338.6,245.5,345.2,248.7,351.9,252z M306,747.7c0,8.6,9.9,14.6,23.8,14.6c6.1,0,9.4-0.5,14.9-3.2
	c-5-10.8-7.7-16.7-10.5-28.6C316.5,731.5,306,738,306,747.7z M679.8,755.8c3.8-8.6,5.9-14.6,9.2-24.8l-25.9,1.6
	C666.3,742.8,670.1,748.2,679.8,755.8z M667.9,664.6l-16.7,1.6l-4.9,0.5l3.8,20l3.8-0.5c15.6-1.6,30.2-2.2,39.9-2.2
	c2.7,0,4.3,0,7.6,0l5.4-20c-4.9-0.5-8.1-0.5-11.3-0.5C687.3,663.5,676,664.1,667.9,664.6z M719.1,615l1.1-3.8
	c1.6-5.9,2.7-11.3,2.7-15.1c0-22.1-31.8-37.2-80.4-37.2c-28.6,0-49.6,7-65.8,21.6c-17.3,15.1-27.5,33.4-27.5,51.8
	c0,34,28.1,55.6,71.2,55.6c5.9,0,11.9,0,17.3-0.5h3.2l-3.2-18.9c-5.4,0-8.1,0-11.9,0c-36.1,0-55.6-13.5-55.6-39.4
	c0-24.3,14.6-42.1,34.5-42.1c15.6,0,25.3,9.2,32.4,30.2l1.1,3.2l5.4-0.5c30.2-3.2,55.6-4.9,69-4.9C713.7,615,716.4,615,719.1,615z
	 M369.6,732.6L343,731c3.3,10.2,5.5,16.2,9.4,24.8C362.4,748.2,366.3,742.8,369.6,732.6z M382.8,686.7l3.9-20l-5-0.5l-17.1-1.6
	c-8.3-0.5-19.9-1.1-28.2-1.1c-3.3,0-6.6,0-11.6,0.5l5.5,20c3.3,0,5,0,7.7,0c9.9,0,24.9,0.5,40.9,2.2L382.8,686.7z M652.8,733.7
	c-9.7,1.1-28,1.6-35.1,1.6c-53.4,0-85.2-28.6-85.2-77.1c0-34.6,16.9-67.9,43.5-93.7c-4.2,0.9-8.3,1.4-12.2,1.4
	c-21.3,0-38.4-11.4-45.7-28.3c-7.5,16.9-25,28.3-46.8,28.3c-4,0-8.2-0.5-12.5-1.4c27.3,25.8,44.6,59.1,44.6,93.7
	c0,48.5-32.6,77.1-87.3,77.1c-7.2,0-26-0.5-35.9-1.6c-4.4,11.9-12.2,22.1-23.8,30.2l7.2,14l5.5-1.1c39.2-6.5,51.4-8.1,71.3-8.1
	c35,0,63.2,12.2,77.8,31.6c14.2-19.4,41.8-31.6,75.9-31.6c19.4,0,31.3,1.6,69.6,8.1l5.4,1.1l7-14
	C664.7,755.8,657.1,745.5,652.8,733.7z M536.3,852.3c0,11.3,10.2,17.8,26.4,17.8c24.3,0,48.5-12.9,69-37.2c-20.5-4.9-38.8-7-50.7-7
	C555.7,825.9,536.3,837.2,536.3,852.3z M752,482.8c0-3.8,0-6.5,0-7v-56.1v-7.6c0-27-6.5-35.1-29.7-35.1h-7h-1.6V437
	c0,44.8-0.5,45.8-27,71.7c-2.8,2.7-5.2,5.1-7.2,7.3c5.3-0.5,10.6-0.8,15.9-0.8c7.6,0,15.6,0.5,23.7,1.6l16.2,2.2c2.2,0,4.3,0,7,0
	c5.7,0,9.7-0.6,13.5-2.2c-2.6-7.6-3.8-17.1-3.8-29.1C752,486.6,752,484.4,752,482.8z M1024,512c0,282.8-229.2,512-512,512
	S0,794.8,0,512S229.2,0,512,0S1024,229.2,1024,512z M835.6,494.2c-14.6-5.9-17.8-11.9-17.3-32.4v-6.5v-36.1
	c0-24.3-1.1-30.7-6.5-38.3c-7.6-11.9-18.9-16.2-41.5-16.2c-4.3,0-9.2,0-11.9,0.5c-3.8,0-7,0-7,0c-3.2,0-4.3-0.5-4.3-2.7
	c0-1.6,1.6-2.7,4.9-3.2c13.5-1.1,25.9-4.9,34.5-9.2c18.3-10.8,31.8-34,31.8-55c0-10.3-1.6-17.3-9.2-44.8c-2.2-8.6-3.8-17.8-3.8-22.7
	c0-12.9,7-23.7,17.3-25.9c4.9-1.1,5.4-1.6,5.4-3.2c0-2.7-3.8-4.3-10.2-4.3c-9.2,0-19.4,2.7-28.6,7.6c-14.6,7.6-22.1,23.7-23.7,48.5
	l-1.1,26.4c-2.7,57.7-14.6,76.6-48,76.6h-2.7V245.5l2.7-1.1c29.1-10.2,41-19.4,41-31.8c0-7.6-4.9-11.3-15.6-11.3
	c-3.2,17.3-7,21.6-25.3,31.8l-2.7,1.6v-15.1c9.2-10.8,15.1-22.1,15.1-30.2c0-6.5-3.8-10.8-8.6-10.8c-9.7,0-14.6,11.3-15.6,36.7
	c-6.5,2.2-9.7,2.7-13.5,2.7c-8.6,0-18.3-3.8-37.2-15.1c-27-15.6-39.9-20.5-60.4-20.5c-34.1,0-62.6,18.1-75.4,44.6
	c-13-26.5-42.3-44.6-77.2-44.6c-21,0-34.3,4.9-61.9,20.5c-19.3,11.3-29.3,15.1-38.1,15.1c-3.9,0-7.2-0.5-13.8-2.7
	c-1.1-25.4-6.1-36.7-16-36.7c-5,0-8.8,4.3-8.8,10.8c0,8.1,6.1,19.4,15.5,30.2v15.1l-2.8-1.6c-18.8-10.2-22.7-14.6-26-31.8
	c-11.1,0-16,3.8-16,11.3c0,12.4,12.2,21.6,42,31.8l2.8,1.1v107.9h-2.8c-34.3,0-46.4-18.9-49.2-76.6l-1.1-26.4
	c-1.7-24.8-9.4-41-24.3-48.5c-9.4-4.9-19.9-7.6-29.3-7.6c-6.6,0-10.5,1.6-10.5,4.3c0,1.6,0.6,2.2,5.5,3.2
	c10.5,2.2,17.7,12.9,17.7,25.9c0,4.9-1.7,14-3.9,22.7c-7.7,27.5-9.4,34.5-9.4,44.8c0,21,13.8,44.2,32.6,55
	c8.8,4.3,21.6,8.1,35.4,9.2c3.3,0.5,5,1.6,5,3.2c0,2.2-1.1,2.7-4.4,2.7c0,0-3.3,0-7.2,0c-2.8-0.5-7.7-0.5-12.2-0.5
	c-23.2,0-34.8,4.3-42.6,16.2c-5.5,7.6-6.6,14-6.6,38.3v36.1v6.5c0.6,20.5-2.8,26.4-17.7,32.4c6.6,8.6,14.4,14.6,28.2,22.7
	c12.2,6.5,16,11.3,21,25.3c14.6-3.5,24-9.2,29.6-19c12.4,28.5,25.4,66,31.7,92.9c-21.5,4.3-32.1,8.1-43.1,17.3
	c-17.1,13.5-26,32.9-26,56.6c0,25.3,12.7,52.9,35.9,78.7l22.7,25.3c15.5,17.3,26.5,41.5,26.5,58.3c0,2.7,0,4.9-1.7,9.7l5.5-2.2
	l21-7.6c27.1-10.2,32-11.9,46.4-16.7c28.2,30.2,54.2,43.2,85.1,43.2c17.8,0,32.9-6.8,42.4-17.9c9.3,11.1,24,17.9,41.4,17.9
	c30.2,0,55.6-12.9,83.1-43.2c14,4.9,18.9,6.5,45.3,16.7l20.5,7.6l5.4,2.2c-1.6-4.9-1.6-7-1.6-9.7c0-16.7,10.8-41,25.9-58.3
	l22.1-25.3c22.7-25.9,35.1-53.4,35.1-78.7c0-23.7-8.6-43.1-25.3-56.6c-10.8-9.2-21-12.9-42.1-17.3c6.1-26.8,18.8-64.4,30.9-92.9
	c5.5,9.8,14.7,15.5,28.9,19c4.9-14,8.6-18.9,20.5-25.3C821.6,508.7,829.2,502.8,835.6,494.2z M710,685.6
	c21.6,2.7,37.8,20.5,37.8,42.1c0,24.3-21.6,43.7-47.5,43.7c-6.5,0-10.8-1.1-16.7-3.8l-5.9,12.4l3.8,0.5c17.8,3.8,22.1,4.3,28.6,4.3
	c30.2,0,58.8-29.1,58.8-60.4c0-32.4-20.5-55-53.4-59.3L710,685.6z M348.6,473.1c3.3,0,5.5-0.5,11.1-1.1
	C343,449.4,337,432.7,337,409.5c0-17.3,5-37.8,11.6-51.2l9.4-17.8c6.1-11.9,9.4-24.3,9.4-35.1c0-26.4-11.6-42.6-40.3-55.6v181.8v6.5
	C327,463.4,333.1,473.1,348.6,473.1z M490.6,538.4c0-14-16.6-24.3-40.3-24.3c-13.8,0-29.3,3.2-44.2,9.2c8.9,8.1,16.8,14.4,24.1,19.2
	c1,0.6,2,1.3,3,1.9c12.3,7.5,23.2,10.7,34.8,10.7C481.8,555.1,490.6,548.6,490.6,538.4z M331.4,771.4c-26.5,0-48.6-19.4-48.6-43.7
	c0-21.6,16.6-39.4,38.7-42.1l-5.5-20.5c-33.7,4.3-54.7,27-54.7,59.3c0,31.3,29.3,60.4,60.2,60.4c6.6,0,11-0.5,29.3-4.3l3.9-0.5
	l-6.1-12.4C342.5,770.4,338.1,771.4,331.4,771.4z M336.4,515.2c5.5,0,10.9,0.3,16.3,0.8c-2.1-2.2-4.5-4.6-7.4-7.3
	c-27.1-25.9-27.6-27-27.6-71.7v-59.9H316h-7.2c-23.8,0-30.4,8.1-30.4,35.1v7.6v56.1c0,0.5,0,3.2,0,7c0,1.6,0,3.8,0,4.9
	c0,12-1.2,21.5-3.9,29.1c3.9,1.7,8,2.2,13.8,2.2c2.8,0,5,0,7.2,0l16.6-2.2C320.4,515.8,328.7,515.2,336.4,515.2z M453.6,825.9
	c-12.2,0-30.9,2.2-51.9,7c21,24.3,45.9,37.2,70.7,37.2c16.6,0,27.1-6.5,27.1-17.8C499.4,837.2,479.5,825.9,453.6,825.9z"/>
<g>
</g>
<g>
</g>
<g>
</g>
<g>
</g>
<g>
</g>
<g>
</g>
</svg>
